<svg xmlns="http://www.w3.org/2000/svg" xmlns:xlink="http://www.w3.org/1999/xlink" id="Слой_1" x="0" y="0" version="1.1" viewBox="0 0 128.7 119.7" xml:space="preserve" style="enable-background:new 0 0 128.7 119.7"><style type="text/css">.st0{fill:url(#SVGID_1_)}.st1{fill:url(#SVGID_2_)}.st2{fill:#fff}</style><linearGradient id="SVGID_1_" x1="-1243.138" x2="-1138.907" y1="-620.216" y2="-620.216" gradientTransform="matrix(0.9524 0.7169 -0.4856 0.6451 899.109 1299.5519)" gradientUnits="userSpaceOnUse"><stop offset="0" style="stop-color:#f3f8fa"/><stop offset="1" style="stop-color:#eaf0f4"/></linearGradient><path d="M77.1,110.8L4.1,43.2c-6.4-5.9-5.2-16,2.3-19.9L42.9,4.7C46,3.2,49.7,3,53.1,4.3l67.3,25.9	c7.1,2.7,10.4,10.9,7,17.4l-30.8,60.3C92.9,115.1,83.2,116.5,77.1,110.8z" class="st0"/><linearGradient id="SVGID_2_" x1="113.751" x2="-6.75" y1="16.875" y2="120.875" gradientUnits="userSpaceOnUse"><stop offset="0" style="stop-color:#4194ff"/><stop offset="1" style="stop-color:#175fe1"/></linearGradient><path d="M76.5,118.9l-50.7-12.3c-15.2-3.7-24.6-19-20.9-34.2l12.3-50.7c3.7-15.2,19-24.6,34.2-20.9l50.7,12.3	c15.2,3.7,24.6,19,20.9,34.2L110.7,98C107,113.2,91.7,122.6,76.5,118.9z" class="st1"/><path d="M72.3,43.5c-0.7-0.7-1.7-0.7-2.4,0c-0.7,0.7-0.7,1.7,0,2.4l12.2,12.2H41.8c-0.9,0-1.7,0.7-1.7,1.7	c0,0.9,0.7,1.7,1.7,1.7h40.3L69.9,73.7c-0.7,0.7-0.7,1.8,0,2.4c0.7,0.7,1.8,0.7,2.4,0L87.4,61c0.7-0.7,0.7-1.7,0-2.4L72.3,43.5z M72.3,43.5" class="st2"/></svg>