<svg xmlns="http://www.w3.org/2000/svg" xmlns:xlink="http://www.w3.org/1999/xlink" id="Слой_1" x="0" y="0" version="1.1" viewBox="0 0 126.4 119.7" xml:space="preserve" style="enable-background:new 0 0 126.4 119.7"><style type="text/css">.st0{fill:url(#SVGID_1_)}.st1{fill:url(#SVGID_2_)}.st2{fill:#fff}</style><linearGradient id="SVGID_1_" x1="925.033" x2="843.109" y1="-227.693" y2="-143.253" gradientTransform="matrix(-1.0332 6.768676e-02 -6.536987e-02 -0.9979 967.1485 -190.1206)" gradientUnits="userSpaceOnUse"><stop offset="0" style="stop-color:#f3f8fa"/><stop offset="1" style="stop-color:#eaf0f4"/></linearGradient><path d="M86.4,110.3L45,108.7c-8.3-0.3-15.8-4.8-19.7-11.9L2.8,56.3C-5.1,42,4.6,24.5,21.3,22.8l79.3-7.8	c16.6-1.6,29.6,13.5,24.8,29L110,94C106.9,104,97.2,110.7,86.4,110.3z" class="st0"/><linearGradient id="SVGID_2_" x1="910.588" x2="790.088" y1="16.875" y2="120.875" gradientTransform="matrix(-1 0 0 1 924.0002 0)" gradientUnits="userSpaceOnUse"><stop offset="0" style="stop-color:#4194ff"/><stop offset="1" style="stop-color:#175fe1"/></linearGradient><path d="M50.7,118.9l50.7-12.3c15.2-3.7,24.6-19,20.9-34.2l-12.3-50.7c-3.7-15.2-19-24.6-34.2-20.9L25,13.1	C9.8,16.8,0.5,32.1,4.2,47.3L16.5,98C20.2,113.2,35.5,122.6,50.7,118.9z" class="st1"/><path d="M90,44.1c0-2.6-2.1-4.7-4.7-4.7H41.1c-2.6,0-4.7,2.1-4.7,4.7v31.4c0,2.6,2.1,4.7,4.7,4.7h44.2	c2.6,0,4.7-2.1,4.7-4.7V44.1z M39.5,44.8l15.1,15L39.5,74.9V44.8z M63.3,63.9L41.8,42.6h42.9L63.3,63.9z M56.9,62l5.3,5.3	c0.6,0.6,1.6,0.6,2.2,0l5.2-5.2l15.1,15.1H41.7L56.9,62z M71.8,59.8l15.1-15.1v30.1L71.8,59.8z" class="st2"/></svg>