<svg xmlns="http://www.w3.org/2000/svg" xmlns:xlink="http://www.w3.org/1999/xlink" id="Слой_1" x="0" y="0" version="1.1" viewBox="0 0 132.1 119.7" xml:space="preserve" style="enable-background:new 0 0 132.1 119.7"><style type="text/css">.st0{fill:url(#SVGID_1_)}.st1{fill:url(#SVGID_2_)}.st2{fill:#fff}</style><linearGradient id="SVGID_1_" x1="76.71" x2="-12.314" y1="103.835" y2="195.594" gradientTransform="matrix(0.9929 -0.1193 0.1193 0.9929 12.6217 -74.1294)" gradientUnits="userSpaceOnUse"><stop offset="0" style="stop-color:#f3f8fa"/><stop offset="1" style="stop-color:#eaf0f4"/></linearGradient><path d="M37.5,11.5L81,11c8.7-0.1,16.9,4.4,21.4,11.9l26.1,42.8c9.2,15,0.1,34.6-17.3,37.3l-82.6,12.7	c-17.3,2.7-31.8-13.1-27.8-30.1l13.1-55C16.4,19.5,26.2,11.7,37.5,11.5z" class="st0"/><linearGradient id="SVGID_2_" x1="115.801" x2="-4.699" y1="16.875" y2="120.875" gradientUnits="userSpaceOnUse"><stop offset="0" style="stop-color:#4194ff"/><stop offset="1" style="stop-color:#175fe1"/></linearGradient><path d="M78.5,118.9l-50.7-12.3C12.6,102.9,3.3,87.5,7,72.3l12.3-50.7C23,6.4,38.3-2.9,53.5,0.8l50.7,12.3	c15.2,3.7,24.6,19,20.9,34.2L112.7,98C109.1,113.2,93.7,122.6,78.5,118.9z" class="st1"/><g><path d="M48.2,87c0,0.9,0.8,1.7,1.7,1.7h23.7c0.9,0,1.7-0.8,1.7-1.7v-4.4c0-0.5,0.4-0.9,0.9-0.9h7.6 c2.8,0,5.1-2.3,5.1-5.1v-5.1h0.9c1.5,0,2.8-0.8,3.6-2s0.9-2.8,0.2-4.1l-4.7-9.5c-0.2-15.6-14.5-27.6-30.5-24.5 c-10,1.9-18,10-19.9,20c-1.3,7.1,0.3,14.1,4.4,19.8C46.3,76,48.2,81.5,48.2,87z M41.8,52.1c1.6-8.7,8.5-15.7,17.2-17.3 c13.9-2.7,26.4,7.8,26.4,21.6c0,0.3,0.1,0.5,0.2,0.8l4.9,9.8c0.2,0.4,0,0.7,0,0.9c-0.1,0.1-0.3,0.4-0.7,0.4h-2.6 c-0.9,0-1.7,0.8-1.7,1.7v6.8c0,0.9-0.8,1.7-1.7,1.7h-7.6c-2.4,0-4.3,1.9-4.3,4.3v2.7H51.5c-0.3-5.6-2.4-11.3-5.9-16 C42.1,64.4,40.7,58.3,41.8,52.1z" class="st2"/><path d="M47.7,64.3l9-9l5.7,5.7c0.7,0.7,1.7,0.7,2.4,0l10.6-10.6V53c0,0.9,0.8,1.7,1.7,1.7c0.9,0,1.7-0.8,1.7-1.7v-6.8 c0-0.9-0.8-1.7-1.7-1.7h-6.8c-0.9,0-1.7,0.8-1.7,1.7c0,0.9,0.8,1.7,1.7,1.7h2.9l-9.5,9.5l-5.7-5.7c-0.3-0.3-0.7-0.5-1.2-0.5 c-0.4,0-0.9,0.2-1.2,0.5L45.3,61.9c-0.7,0.7-0.7,1.7,0,2.4C46,65,47,65,47.7,64.3z" class="st2"/></g></svg>