<svg xmlns="http://www.w3.org/2000/svg" xmlns:xlink="http://www.w3.org/1999/xlink" id="Слой_1" x="0" y="0" version="1.1" viewBox="0 0 568 442" xml:space="preserve" style="enable-background:new 0 0 568 442"><style type="text/css">.st0{fill:url(#SVGID_1_)}</style><linearGradient id="SVGID_1_" x1="-12.861" x2="-12.7" y1="641.179" y2="642.104" gradientTransform="matrix(-314.4324 -484.1834 -354.2985 230.0841 223555.4688 -153590.8281)" gradientUnits="userSpaceOnUse"><stop offset="0" style="stop-color:#f3f8fa"/><stop offset="1" style="stop-color:#eaf0f4"/></linearGradient><path d="M203.1,441.3l313.5-38.6l0,0c31.8-3.9,54.4-32.9,50.5-64.7c-1.8-14.4-8.9-27.7-20-37.1L221.7,24.1l0,0	C198.1,4,166.5-4,136.1,2.4L75.5,15.3l0,0c-51,10.8-83.6,61-72.8,112c1.1,5,2.5,9.9,4.4,14.7l92.6,237.6l0,0l0,0	C116,421.3,158.6,446.8,203.1,441.3z" class="st0"/></svg>