<svg xmlns="http://www.w3.org/2000/svg" xmlns:xlink="http://www.w3.org/1999/xlink" id="Слой_1" x="0" y="0" version="1.1" viewBox="0 0 132.1 119.7" xml:space="preserve" style="enable-background:new 0 0 132.1 119.7"><style type="text/css">.st0{fill:url(#SVGID_1_)}.st1{fill:url(#SVGID_2_)}.st2{fill-rule:evenodd;clip-rule:evenodd;fill:#fff}</style><linearGradient id="SVGID_1_" x1="106.694" x2="17.669" y1="5.263" y2="97.022" gradientTransform="matrix(0.9929 -0.1193 0.1193 0.9929 -5.3891 27.3156)" gradientUnits="userSpaceOnUse"><stop offset="0" style="stop-color:#f3f8fa"/><stop offset="1" style="stop-color:#eaf0f4"/></linearGradient><path d="M37.5,11.5L81,11c8.7-0.1,16.9,4.4,21.4,11.9l26.1,42.8c9.2,15,0.1,34.6-17.3,37.3l-82.6,12.7	c-17.3,2.7-31.8-13.1-27.8-30.1l13.1-55C16.4,19.5,26.2,11.7,37.5,11.5z" class="st0"/><linearGradient id="SVGID_2_" x1="115.801" x2="-4.699" y1="16.875" y2="120.875" gradientUnits="userSpaceOnUse"><stop offset="0" style="stop-color:#4194ff"/><stop offset="1" style="stop-color:#175fe1"/></linearGradient><path d="M78.5,118.9l-50.7-12.3C12.6,102.9,3.3,87.5,7,72.3l12.3-50.7C23,6.4,38.3-2.9,53.5,0.8l50.7,12.3	c15.2,3.7,24.6,19,20.9,34.2L112.7,98C109.1,113.2,93.7,122.6,78.5,118.9z" class="st1"/><g><path d="M49.7,49.8h-3.3v3.3h3.3V49.8z M63.1,46.5h-3.3v3.3h3.3V46.5z M69.8,46.5h-3.3v3.3h3.3V46.5z M76.4,46.5h-3.3 v3.3h3.3V46.5z M63.1,39.8h-3.3v3.3h3.3V39.8z M69.8,39.8h-3.3v3.3h3.3V39.8z M76.4,39.8h-3.3v3.3h3.3V39.8z M63.1,59.8h-3.3v3.3 h3.3V59.8z M69.8,59.8h-3.3v3.3h3.3V59.8z M76.4,59.8h-3.3v3.3h3.3V59.8z M63.1,66.5h-3.3v3.3h3.3V66.5z M76.4,66.5h-3.3v3.3h3.3 V66.5z M63.1,73.2h-3.3v3.3h3.3V73.2z M76.4,73.2h-3.3v3.3h3.3V73.2z M63.1,53.1h-3.3v3.3h3.3V53.1z M69.8,53.1h-3.3v3.3h3.3V53.1z M76.4,53.1h-3.3v3.3h3.3V53.1z M49.7,56.5h-3.3v3.3h3.3V56.5z M49.7,63.2h-3.3v3.3h3.3V63.2z M49.7,69.9h-3.3v3.3h3.3V69.9z M49.7,76.5h-3.3v3.3h3.3V76.5z M69.8,66.5h-3.3v3.3h3.3V66.5z M86.5,56.5h-3.3V36.4c0-1.8-1.5-3.3-3.3-3.3H56.4 c-1.8,0-3.3,1.5-3.3,3.3v6.7H43c-1.8,0-3.3,1.5-3.3,3.3v36.8c0,1.8,1.5,3.3,3.3,3.3h43.4c1.8,0,3.3-1.5,3.3-3.3V59.8 C89.8,58,88.3,56.5,86.5,56.5L86.5,56.5z M53,83.2H43V46.5h10V83.2z M79.8,83.2h-10v-10h-3.3v10h-10V36.4h23.4V83.2z M86.5,83.2 h-3.3v-3.3h3.3V83.2z M86.5,76.5h-3.3v-3.3h3.3V76.5z M86.5,69.9h-3.3v-3.3h3.3V69.9z M86.5,63.2h-3.3v-3.3h3.3V63.2z M86.5,63.2" class="st2"/></g></svg>