<svg xmlns="http://www.w3.org/2000/svg" xmlns:xlink="http://www.w3.org/1999/xlink" id="Слой_1" x="0" y="0" version="1.1" viewBox="0 0 517 153" xml:space="preserve" style="enable-background:new 0 0 517 153"><style type="text/css">.st0{fill:url(#SVGID_1_)}</style><linearGradient id="SVGID_1_" x1="-78.427" x2="-78.267" y1="-.186" y2="-1.111" gradientTransform="matrix(-442.2546 -371.0957 271.5473 -323.6174 -34290.5547 -29354.8652)" gradientUnits="userSpaceOnUse"><stop offset="0" style="stop-color:#e6ebee"/><stop offset="1" style="stop-color:#d7dee1"/></linearGradient><path d="M208.3,143.7L496.8,15.1l0,0c29.3-13,42.4-47.3,29.4-76.6c-5.9-13.3-16.6-23.9-29.9-29.6L104.1-260.7l0,0	c-28.5-12.3-61-10.7-88.2,4.3l-54.2,30l0,0c-45.6,25.3-62.1,82.7-36.9,128.4c2.5,4.5,5.3,8.8,8.5,12.8l158,200.1l0,0l0,0	C119.2,150.1,167.3,161.9,208.3,143.7z" class="st0"/></svg>